<?xml version="1.0" encoding="utf-8"?>
<!-- Generator: Adobe Illustrator 19.2.1, SVG Export Plug-In . SVG Version: 6.00 Build 0)  -->
<svg version="1.1" id="Logo" xmlns="http://www.w3.org/2000/svg" xmlns:xlink="http://www.w3.org/1999/xlink" x="0px" y="0px"
	 viewBox="0 0 123.8 57.9" style="enable-background:new 0 0 123.8 57.9;" xml:space="preserve">
<style type="text/css">
	.st0{fill:#FFFFFF;}
	.st1{fill:#FFFFFF;fill-opacity:0;stroke:#FFFFFF;stroke-width:5;stroke-linejoin:round;}
</style>
<path id="Connecto_Logo" class="st0" d="M13.9,43.8c-1.4-1.7-3.4-2.6-5.6-2.5C4,41,0.2,44.4,0,48.8c0,0.3,0,0.6,0,0.8
	c0,5,3.5,8.3,8.4,8.3c2.3,0.1,4.5-1,5.9-2.8L12,53.4c-0.8,1.2-2.1,1.9-3.6,1.9c-3.3,0-5.4-2.5-5.4-5.9c-0.2-3,2.1-5.5,5.1-5.7
	c0.1,0,0.2,0,0.4,0c1.3,0,2.5,0.6,3.3,1.6L13.9,43.8z M15.6,49.6c0,5,3.5,8.3,8.4,8.3c4.9-0.1,8.4-3.4,8.4-8.4
	c0-5.1-3.5-8.4-8.4-8.3c-4.4-0.2-8.1,3.1-8.4,7.5C15.6,49.1,15.6,49.3,15.6,49.6z M18.5,49.5c-0.1-3,2.2-5.6,5.2-5.7
	c3-0.1,5.6,2.2,5.7,5.2c0,0.2,0,0.3,0,0.5c0,3.4-2.2,5.9-5.5,5.9C20.7,55.3,18.5,52.8,18.5,49.5L18.5,49.5z M35.3,57.5h2.8V45.3l0,0
	L46,57.5h3.6V41.6h-2.8v11.8l0,0L39,41.6h-3.7V57.5L35.3,57.5z M46.8,57.5h2.8V45.3l0,0l7.8,12.1H61V41.6h-2.8v11.8l0,0l-7.7-11.8
	h-3.7L46.8,57.5L46.8,57.5z M64.4,57.5h13.7L77.2,55h-9.9v-4.3h7.3v-2.5h-7.3v-3.9h9.5l0.9-2.5H64.4V57.5L64.4,57.5z M92.3,43.7
	c-1.4-1.7-3.4-2.6-5.6-2.5c-4.4-0.2-8.1,3.1-8.4,7.5c0,0.3,0,0.6,0,0.8c0,5,3.5,8.3,8.4,8.3c2.3,0.1,4.5-1,5.9-2.8l-2.3-1.7
	c-0.8,1.2-2.1,1.9-3.6,1.9c-3.3,0-5.4-2.5-5.4-5.9c-0.2-3,2.1-5.5,5.1-5.7c0.1,0,0.2,0,0.4,0c1.3,0,2.5,0.6,3.3,1.6L92.3,43.7z
	 M98.9,57.5h2.8V44.2h4.9v-2.5H94.1v2.5H99L98.9,57.5L98.9,57.5z M107,49.6c0,5,3.5,8.3,8.4,8.3c4.9-0.1,8.4-3.4,8.4-8.4
	c0-5.1-3.5-8.4-8.4-8.3c-4.4-0.2-8.1,3.1-8.4,7.5C107,49.1,107,49.3,107,49.6z M110,49.5c-0.1-3,2.2-5.6,5.2-5.7
	c3-0.1,5.6,2.2,5.7,5.2c0,0.2,0,0.3,0,0.5c0,3.4-2.2,5.9-5.5,5.9C112.1,55.3,110,52.8,110,49.5z"/>
<path id="bg" class="st1" d="M50.9,2.5h21.6v21.6H50.9V2.5z"/>
</svg>
