<?xml version="1.0" encoding="utf-8"?>
<!-- Generator: Adobe Illustrator 19.2.1, SVG Export Plug-In . SVG Version: 6.00 Build 0)  -->
<svg version="1.1" id="Logo_2" xmlns="http://www.w3.org/2000/svg" xmlns:xlink="http://www.w3.org/1999/xlink" x="0px" y="0px"
	 viewBox="0 0 171 151" style="enable-background:new 0 0 171 151;" xml:space="preserve">
<style type="text/css">
	.st0{opacity:0.1;fill:#FFFFFF;fill-opacity:0;stroke:#FFFFFF;stroke-linejoin:round;enable-background:new    ;}
	.st1{fill:#FFFFFF;fill-opacity:0;stroke:#FFFFFF;stroke-width:6;stroke-linejoin:round;}
	.st2{fill:#FFFFFF;}
</style>
<rect id="Logo_PlaceHolder" x="0.5" y="0.5" class="st0" width="170" height="150"/>
<g id="Logo">
	<rect id="BG" x="45.5" y="35.5" class="st1" width="80" height="80"/>
	<path id="fr" class="st2" d="M93.9,82.2c-1.1,0-2.2-0.4-3-1.1c-0.4-0.5-0.9-0.9-1.5-1.1c-0.7,0-1.8,1.1-3.3,3.2
		c-1.4,2-2.6,4.1-3.5,6.3c-1.1,3.1-2,6.3-2.7,9.6l-2.4,10.6h-8.8L75.8,77h-7.2l0.6-2.4h5.8c3.3,0,6.6-0.2,9.9-0.6l-2.7,11.5l0.2,0.2
		c4.2-8.2,8.1-12.3,11.4-12.3c1.2,0,2.4,0.4,3.2,1.2c0.9,0.8,1.4,1.9,1.3,3.1c0,1.2-0.4,2.3-1.3,3.1C96.3,81.8,95.1,82.2,93.9,82.2z
		 M73.4,59.4c-1.1,0-2.2-0.4-2.9-1.2c-0.8-0.7-1.3-1.8-1.3-2.9c0-1.1,0.5-2.2,1.3-3c0.5-0.4,1-0.9,1.3-1.5c0-0.6-0.9-1-2.8-1
		c-4.2,0-7.2,2.3-9,6.8s-3.1,10.5-3.9,18H63L62.6,77H56l-3.4,20.2c-0.8,4.7-1.6,8.8-2.4,12.3h-4.7V84.8l1-5.4c0-0.1,0.1-0.5,0.2-1.2
		c0.1-0.4,0.1-0.8,0.2-1.1h-1.4v-2.4h2c1.9-9.1,4.8-15.8,8.7-20.3c3.9-4.5,8-6.7,12.3-6.7c2.3-0.1,4.6,0.7,6.4,2.1
		c1.6,1.2,2.6,3.1,2.7,5.1c0,1.2-0.4,2.3-1.2,3.2C75.6,58.9,74.5,59.4,73.4,59.4z"/>
</g>
</svg>
