<?xml version="1.0" encoding="utf-8"?>
<!-- Generator: Adobe Illustrator 19.2.1, SVG Export Plug-In . SVG Version: 6.00 Build 0)  -->
<svg version="1.1" id="Logo_5" xmlns="http://www.w3.org/2000/svg" xmlns:xlink="http://www.w3.org/1999/xlink" x="0px" y="0px"
	 viewBox="0 0 171 151" style="enable-background:new 0 0 171 151;" xml:space="preserve">
<style type="text/css">
	.st0{opacity:0.1;fill:#FFFFFF;fill-opacity:0;stroke:#FFFFFF;stroke-linejoin:round;enable-background:new    ;}
	.st1{fill:#FFFFFF;}
</style>
<rect id="Logo_PlaceHolder" x="0.5" y="0.5" class="st0" width="170" height="150"/>
<g id="Logo">
	<path id="SA_GE" class="st1" d="M73,65c-0.4,0.3-0.9,0.4-1.3,0.3h-2.3c-0.5,0.1-0.9-0.1-1.3-0.3c-0.3-0.4-0.4-0.8-0.3-1.3v-4.3
		h-5.1v5.1c0,3.3,1.7,4.9,5.2,4.9h5.4c3.5,0,5.2-1.6,5.2-4.9v-10c0-3.3-1.7-4.9-5.1-4.9h-4.1c-0.5,0.1-0.9-0.1-1.3-0.3
		c-0.3-0.4-0.4-0.8-0.3-1.3v-7.7c-0.1-0.5,0.1-0.9,0.3-1.3c0.4-0.3,0.9-0.4,1.3-0.3h2.3c0.5-0.1,0.9,0.1,1.3,0.3
		c0.3,0.4,0.4,0.8,0.3,1.3v4.3h5.1v-5.1c0-3.2-1.7-4.9-5.2-4.9h-5.4c-3.4,0-5.2,1.6-5.2,4.9v9.2c0,3.3,1.7,4.9,5.1,4.9h4.1
		c0.7-0.2,1.4,0.1,1.6,0.8c0.1,0.3,0.1,0.5,0,0.8v8.5C73.4,64.2,73.3,64.6,73,65z M99.2,38.9l3.2,18.3h-6.1L99.2,38.9z M109.5,69.4
		l-6.6-34.8h-7.3l-6.2,34.8h5l1.3-8.1h7.3l1.4,8.1H109.5z M78.8,81.1c0-3.2-1.7-4.9-5.2-4.9h-5.9c-3.4,0-5.2,1.6-5.2,4.9v25
		c0,3.3,1.7,4.9,5.2,4.9h5.9c3.4,0,5.2-1.6,5.2-4.9v-13H71V97h2.8v8.5c0.1,0.5-0.1,0.9-0.3,1.3c-0.4,0.3-0.9,0.4-1.3,0.3h-2.8
		c-0.5,0.1-0.9-0.1-1.3-0.3c-0.3-0.4-0.4-0.8-0.3-1.3V81.8c-0.1-0.5,0.1-0.9,0.3-1.3c0.4-0.3,0.9-0.4,1.3-0.3h2.8
		c0.5-0.1,0.9,0.1,1.3,0.3c0.3,0.4,0.4,0.8,0.3,1.3v4.6h5.1L78.8,81.1L78.8,81.1z M97.3,95.1h8V91h-8V80.3h9.7v-4H92.2V111h15.1V107
		H97.3V95.1z M62.8,116.6h44.4v4.4H62.8V116.6z"/>
</g>
</svg>
