<?xml version="1.0" encoding="utf-8"?>
<!-- Generator: Adobe Illustrator 19.2.1, SVG Export Plug-In . SVG Version: 6.00 Build 0)  -->
<svg version="1.1" id="Logo_6" xmlns="http://www.w3.org/2000/svg" xmlns:xlink="http://www.w3.org/1999/xlink" x="0px" y="0px"
	 viewBox="0 0 171 151" style="enable-background:new 0 0 171 151;" xml:space="preserve">
<style type="text/css">
	.st0{opacity:0.1;fill:none;stroke:#FFFFFF;stroke-linejoin:round;enable-background:new    ;}
	.st1{fill:#FFFFFF;}
</style>
<rect id="Logo_PlaceHolder" x="0.5" y="0.5" class="st0" width="170" height="150"/>
<g id="Logo">
	<path id="iUI" class="st1" d="M52.8,92.8c-0.2,2.5,1.7,4.6,4.2,4.8c2.5,0.2,4.6-1.7,4.8-4.2s-1.7-4.6-4.2-4.8c-0.1,0-0.2,0-0.3,0
		C54.8,88.5,52.9,90.4,52.8,92.8L52.8,92.8z M102.6,54.6h-7.3v25.9c0,4.1-2.2,9.5-9.3,9.5s-9.3-5.4-9.3-9.5V54.6h-7.3v26.1
		c0,10,7.2,16.2,16.6,16.2s16.6-6.2,16.6-16.2L102.6,54.6L102.6,54.6z M111.5,95.9h7.3V54.6h-7.3V95.9z"/>
</g>
</svg>
