<?xml version="1.0" encoding="utf-8"?>
<!-- Generator: Adobe Illustrator 19.2.1, SVG Export Plug-In . SVG Version: 6.00 Build 0)  -->
<svg version="1.1" id="Logo_3" xmlns="http://www.w3.org/2000/svg" xmlns:xlink="http://www.w3.org/1999/xlink" x="0px" y="0px"
	 viewBox="0 0 171 151" style="enable-background:new 0 0 171 151;" xml:space="preserve">
<style type="text/css">
	.st0{opacity:0.1;fill:#FFFFFF;fill-opacity:0;stroke:#FFFFFF;stroke-linejoin:round;enable-background:new    ;}
	.st1{fill:#FFFFFF;}
</style>
<rect id="Logo_PlaceHolder" x="0.5" y="0.5" class="st0" width="170" height="150"/>
<g id="Logo">
	<path id="University" class="st1" d="M29.3,118.6c0.7-0.3,1.4-0.7,1.9-1.2c0.5-0.5,0.9-1.2,1.1-1.9c0.3-0.8,0.4-1.6,0.4-2.4v-9.3
		h-3.4v9c0.1,0.9-0.2,1.8-0.8,2.6c-0.5,0.5-1.3,0.8-2,0.8c-0.4,0-0.8-0.1-1.1-0.2c-0.3-0.1-0.6-0.3-0.9-0.6c-0.3-0.3-0.4-0.7-0.6-1
		c-0.1-0.5-0.2-1-0.2-1.5v-9h-3.4v9.3c0,0.8,0.1,1.6,0.4,2.4c0.2,0.7,0.6,1.3,1.1,1.9c0.5,0.5,1.2,1,1.9,1.2
		c0.9,0.3,1.8,0.5,2.7,0.4C27.4,119,28.4,118.9,29.3,118.6z M49,118.7v-15h-3.3v8.8c-0.5-0.8-1.1-1.6-1.7-2.4
		c-0.6-0.8-1.2-1.6-1.8-2.4s-1.2-1.5-1.8-2.2s-1.1-1.3-1.6-1.8h-2.7v15h3.3v-9.8c1.3,1.5,2.5,3.1,3.6,4.7c1.1,1.7,2.2,3.4,3.1,5.1
		H49z M52.6,118.7h3.4v-15h-3.4V118.7z M67.7,118.7c0.6-1.3,1.2-2.6,1.8-3.9s1.1-2.7,1.6-4s1-2.6,1.4-3.8s0.8-2.3,1.2-3.2h-3.6
		c-0.3,0.9-0.6,1.8-0.9,2.8s-0.7,2-1,3s-0.7,1.9-1,2.9s-0.6,1.7-0.9,2.4c-0.3-0.7-0.6-1.4-0.9-2.4s-0.7-1.9-1-2.9s-0.7-2-1-3
		s-0.7-1.9-0.9-2.8h-3.7c0.3,0.9,0.7,2,1.1,3.2c0.4,1.2,0.9,2.5,1.4,3.8s1.1,2.7,1.7,4s1.2,2.7,1.8,3.9H67.7L67.7,118.7z
		 M86.1,118.7v-2.8h-7.2v-3.6h6v-2.8h-6v-2.9h6.7v-2.8H75.5v15L86.1,118.7L86.1,118.7z M91.5,103.7c-0.8,0.1-1.5,0.2-2.3,0.3v14.8
		h3.4v-5.5h1.7c0.3,0.4,0.6,0.7,0.9,1.2s0.6,0.9,0.9,1.4s0.6,1,0.9,1.5s0.6,1,0.8,1.5h3.8c-0.3-0.6-0.5-1.1-0.8-1.7
		c-0.3-0.6-0.6-1.1-0.9-1.6s-0.7-1-1-1.5s-0.6-0.9-1-1.3c0.8-0.3,1.5-0.8,2.1-1.5c0.5-0.8,0.8-1.7,0.7-2.6c0.1-1.5-0.6-2.9-1.8-3.7
		c-1.6-0.9-3.4-1.3-5.2-1.2C93,103.6,92.3,103.6,91.5,103.7L91.5,103.7z M96.2,106.9c0.6,0.3,0.9,0.9,0.8,1.6
		c0.1,0.7-0.3,1.3-0.8,1.6c-0.9,0.4-1.8,0.5-2.7,0.5h-1v-4.1c0.2,0,0.4,0,0.6,0s0.4,0,0.7,0C94.6,106.4,95.5,106.6,96.2,106.9
		L96.2,106.9z M105.5,115.8c-0.6-0.2-1.1-0.4-1.7-0.6l-1,2.7c0.2,0.1,0.5,0.3,0.7,0.4c0.3,0.1,0.7,0.3,1.1,0.4
		c0.5,0.1,0.9,0.2,1.4,0.3c0.6,0.1,1.2,0.1,1.8,0.1c1.6,0.1,3.1-0.3,4.4-1.2c1-0.8,1.5-2,1.5-3.2c0-0.6-0.1-1.2-0.3-1.8
		c-0.2-0.5-0.5-1-0.9-1.3c-0.4-0.4-0.9-0.7-1.4-1c-0.6-0.3-1.3-0.6-2-0.9c-0.4-0.1-0.7-0.2-1-0.4c-0.3-0.1-0.6-0.2-0.8-0.4
		c-0.2-0.1-0.4-0.3-0.6-0.5c-0.1-0.2-0.2-0.4-0.2-0.7c0-0.4,0.2-0.8,0.5-1c0.5-0.3,1.1-0.4,1.7-0.3c0.6,0,1.2,0.1,1.8,0.2
		c0.5,0.2,0.9,0.3,1.4,0.6l1-2.7c-0.6-0.3-1.2-0.5-1.8-0.7c-0.9-0.2-1.7-0.3-2.6-0.3c-0.8,0-1.5,0.1-2.3,0.3
		c-0.6,0.2-1.2,0.5-1.7,0.9c-0.5,0.4-0.8,0.9-1.1,1.4c-0.3,0.6-0.4,1.2-0.4,1.9c0,0.6,0.1,1.2,0.4,1.8c0.2,0.5,0.6,0.9,1,1.2
		c0.4,0.3,0.8,0.6,1.3,0.8c0.5,0.2,1,0.4,1.5,0.6c0.8,0.2,1.6,0.6,2.4,1c0.4,0.3,0.7,0.7,0.7,1.2c0,0.2,0,0.4-0.1,0.6
		c-0.1,0.2-0.2,0.4-0.4,0.5c-0.2,0.2-0.5,0.3-0.7,0.3c-0.4,0.1-0.8,0.1-1.2,0.1C107.1,116.2,106.3,116.1,105.5,115.8L105.5,115.8z
		 M116.6,118.7h3.4v-15h-3.4V118.7z M122.8,103.7v2.9h4.5v12.1h3.4v-12.1h4.5v-2.9H122.8L122.8,103.7z M142,106.8
		c-0.5-1-1-2-1.5-3.1h-3.9c0.8,1.6,1.7,3.2,2.6,4.7c0.9,1.5,1.8,3,2.8,4.6v5.7h3.4V113c1-1.5,1.9-3,2.8-4.5c0.9-1.5,1.7-3.1,2.5-4.7
		H147c-0.5,1-1,2.1-1.5,3.1s-1.1,2-1.7,3.1C143.1,108.9,142.5,107.9,142,106.8L142,106.8z"/>
	<path id="Logo-2" class="st1" d="M78.9,64.8c0,8.5,6,14.3,15.1,14.3c9,0,15-5.8,15-14.3V47.3c-0.1-0.6,0.4-1.1,1-1.2
		c0.1,0,0.2,0,0.2,0h2.3v-6h-6.9c-2.6,0-3.7,1.1-3.7,3.7v20.7c0,5.1-3.2,8-8,8s-8-2.9-8-7.9V43.8c0-2.5-1.1-3.7-3.7-3.7h-6.9v6h2.3
		c0.6-0.1,1.1,0.4,1.2,1c0,0.1,0,0.2,0,0.2V64.8L78.9,64.8z M58.6,32.3h54v54h-54V32.3z"/>
</g>
</svg>
